# xmcd
#
# Track frame offsets:
#	150
#	13841
#	30253
#	46095
#	61817
#	78131
#	94836
#	113833
#	130296
#	149812
#	167959
#	185332
#
# Disc length: 2674 seconds
#
# Revision: 2
# Processed by: cddbd v1.5.2PL0 Copyright (c) Steve Scherf et al.
# Submitted via: EasyCDDAExtractor 15.3.0.1
#
DISCID=9a0a700c
DTITLE=Ana Barbara - Te Atrapare... Bandido
DYEAR=2003
DGENRE=Latin
TTITLE0=Bandido
TTITLE1=Nada De Ti
TTITLE2=Ahora Soy De Hielo (Version Balada)
TTITLE3=Lo Mejor Que Te Escuche (Version Cumbia)
TTITLE4=Solo Hace Falta Ser Mujer
TTITLE5=Quisiera Volar
TTITLE6=Complices
TTITLE7=Deja
TTITLE8=Matame
TTITLE9=No Vuelvas
TTITLE10=Lo Mejor Que Te Escuche (Version Balada Pop) (Bonus Track)
TTITLE11=Ahora Soy De Hielo (Version Cumbia) (Bonus Track)
EXTD=
EXTT0=
EXTT1=
EXTT2=
EXTT3=
EXTT4=
EXTT5=
EXTT6=
EXTT7=
EXTT8=
EXTT9=
EXTT10=
EXTT11=
PLAYORDER=
